<svg width="900" height="320" viewBox="0 0 900 320" xmlns="http://www.w3.org/2000/svg">
  <defs>
    <linearGradient id="bg" x1="0%" y1="0%" x2="100%" y2="100%">
      <stop offset="0%" style="stop-color:#0a0a0a"/>
      <stop offset="100%" style="stop-color:#111827"/>
    </linearGradient>
    <linearGradient id="cardgrad" x1="0%" y1="0%" x2="0%" y2="100%">
      <stop offset="0%" style="stop-color:#ffffff0f"/>
      <stop offset="100%" style="stop-color:#ffffff05"/>
    </linearGradient>
    <linearGradient id="green" x1="0%" y1="0%" x2="100%" y2="0%">
      <stop offset="0%" style="stop-color:#6ee7b7"/>
      <stop offset="100%" style="stop-color:#34d399"/>
    </linearGradient>
    <linearGradient id="blue" x1="0%" y1="0%" x2="100%" y2="0%">
      <stop offset="0%" style="stop-color:#60a5fa"/>
      <stop offset="100%" style="stop-color:#818cf8"/>
    </linearGradient>
    <linearGradient id="orange" x1="0%" y1="0%" x2="100%" y2="0%">
      <stop offset="0%" style="stop-color:#fb923c"/>
      <stop offset="100%" style="stop-color:#fbbf24"/>
    </linearGradient>
    <pattern id="dots" width="20" height="20" patternUnits="userSpaceOnUse">
      <circle cx="10" cy="10" r="1" fill="#ffffff05"/>
    </pattern>
  </defs>

  <rect width="900" height="320" fill="url(#bg)" rx="12"/>
  <rect width="900" height="320" fill="url(#dots)" rx="12"/>

  <!-- Section title -->
  <text x="40" y="45" font-family="'Courier New', monospace" font-size="11" fill="#6b7280" letter-spacing="3">TECH STACK</text>
  <line x1="40" y1="55" x2="860" y2="55" stroke="#ffffff10" stroke-width="1"/>

  <!-- ═══ CARD 1: Frontend ═══ -->
  <rect x="40" y="72" width="258" height="216" rx="8" fill="url(#cardgrad)" stroke="#ffffff12" stroke-width="1"/>
  <rect x="40" y="72" width="258" height="3" rx="2" fill="url(#green)"/>
  <text x="60" y="100" font-family="'Courier New', monospace" font-size="11" fill="#6ee7b7" letter-spacing="2">FRONTEND</text>

  <!-- Skills list -->
  <text x="60" y="132" font-family="'Courier New', monospace" font-size="15" font-weight="600" fill="#f9fafb">TypeScript</text>
  <text x="60" y="157" font-family="'Courier New', monospace" font-size="15" font-weight="600" fill="#f9fafb">React</text>
  <text x="60" y="182" font-family="'Courier New', monospace" font-size="15" font-weight="600" fill="#f9fafb">Tailwind CSS</text>
  <text x="60" y="207" font-family="'Courier New', monospace" font-size="15" font-weight="600" fill="#f9fafb">HTML / CSS</text>
  <text x="60" y="232" font-family="'Courier New', monospace" font-size="15" font-weight="600" fill="#f9fafb">Sass</text>

  <!-- Skill bars -->
  <rect x="195" y="123" width="83" height="3" rx="2" fill="#ffffff0a"/>
  <rect x="195" y="123" width="78" height="3" rx="2" fill="url(#green)"/>

  <rect x="195" y="148" width="83" height="3" rx="2" fill="#ffffff0a"/>
  <rect x="195" y="148" width="75" height="3" rx="2" fill="url(#green)"/>

  <rect x="195" y="173" width="83" height="3" rx="2" fill="#ffffff0a"/>
  <rect x="195" y="173" width="70" height="3" rx="2" fill="url(#green)"/>

  <rect x="195" y="198" width="83" height="3" rx="2" fill="#ffffff0a"/>
  <rect x="195" y="198" width="83" height="3" rx="2" fill="url(#green)"/>

  <rect x="195" y="223" width="83" height="3" rx="2" fill="#ffffff0a"/>
  <rect x="195" y="223" width="50" height="3" rx="2" fill="url(#green)"/>

  <!-- Proficiency label -->
  <text x="245" y="278" font-family="'Courier New', monospace" font-size="9" fill="#4b5563" text-anchor="middle">proficiency</text>

  <!-- ═══ CARD 2: Backend ═══ -->
  <rect x="321" y="72" width="258" height="216" rx="8" fill="url(#cardgrad)" stroke="#ffffff12" stroke-width="1"/>
  <rect x="321" y="72" width="258" height="3" rx="2" fill="url(#blue)"/>
  <text x="341" y="100" font-family="'Courier New', monospace" font-size="11" fill="#60a5fa" letter-spacing="2">BACKEND</text>

  <text x="341" y="132" font-family="'Courier New', monospace" font-size="15" font-weight="600" fill="#f9fafb">Node.js</text>
  <text x="341" y="157" font-family="'Courier New', monospace" font-size="15" font-weight="600" fill="#f9fafb">Express.js</text>
  <text x="341" y="182" font-family="'Courier New', monospace" font-size="15" font-weight="600" fill="#f9fafb">REST APIs</text>
  <text x="341" y="207" font-family="'Courier New', monospace" font-size="15" font-weight="600" fill="#f9fafb">Python</text>
  <text x="341" y="232" font-family="'Courier New', monospace" font-size="15" font-weight="600" fill="#f9fafb">JavaScript</text>

  <rect x="476" y="123" width="83" height="3" rx="2" fill="#ffffff0a"/>
  <rect x="476" y="123" width="80" height="3" rx="2" fill="url(#blue)"/>

  <rect x="476" y="148" width="83" height="3" rx="2" fill="#ffffff0a"/>
  <rect x="476" y="148" width="80" height="3" rx="2" fill="url(#blue)"/>

  <rect x="476" y="173" width="83" height="3" rx="2" fill="#ffffff0a"/>
  <rect x="476" y="173" width="75" height="3" rx="2" fill="url(#blue)"/>

  <rect x="476" y="198" width="83" height="3" rx="2" fill="#ffffff0a"/>
  <rect x="476" y="198" width="60" height="3" rx="2" fill="url(#blue)"/>

  <rect x="476" y="223" width="83" height="3" rx="2" fill="#ffffff0a"/>
  <rect x="476" y="223" width="83" height="3" rx="2" fill="url(#blue)"/>

  <!-- ═══ CARD 3: Data & Tools ═══ -->
  <rect x="602" y="72" width="258" height="216" rx="8" fill="url(#cardgrad)" stroke="#ffffff12" stroke-width="1"/>
  <rect x="602" y="72" width="258" height="3" rx="2" fill="url(#orange)"/>
  <text x="622" y="100" font-family="'Courier New', monospace" font-size="11" fill="#fb923c" letter-spacing="2">DATA &amp; TOOLS</text>

  <text x="622" y="132" font-family="'Courier New', monospace" font-size="15" font-weight="600" fill="#f9fafb">MongoDB</text>
  <text x="622" y="157" font-family="'Courier New', monospace" font-size="15" font-weight="600" fill="#f9fafb">MySQL</text>
  <text x="622" y="182" font-family="'Courier New', monospace" font-size="15" font-weight="600" fill="#f9fafb">SQL Server</text>
  <text x="622" y="207" font-family="'Courier New', monospace" font-size="15" font-weight="600" fill="#f9fafb">Git</text>
  <text x="622" y="232" font-family="'Courier New', monospace" font-size="15" font-weight="600" fill="#f9fafb">Postman</text>

  <rect x="757" y="123" width="83" height="3" rx="2" fill="#ffffff0a"/>
  <rect x="757" y="123" width="75" height="3" rx="2" fill="url(#orange)"/>

  <rect x="757" y="148" width="83" height="3" rx="2" fill="#ffffff0a"/>
  <rect x="757" y="148" width="70" height="3" rx="2" fill="url(#orange)"/>

  <rect x="757" y="173" width="83" height="3" rx="2" fill="#ffffff0a"/>
  <rect x="757" y="173" width="65" height="3" rx="2" fill="url(#orange)"/>

  <rect x="757" y="198" width="83" height="3" rx="2" fill="#ffffff0a"/>
  <rect x="757" y="198" width="83" height="3" rx="2" fill="url(#orange)"/>

  <rect x="757" y="223" width="83" height="3" rx="2" fill="#ffffff0a"/>
  <rect x="757" y="223" width="55" height="3" rx="2" fill="url(#orange)"/>
</svg>
